<?xml version="1.0" encoding="UTF-8" standalone="no"?>
<svg
   xmlns:dc="http://purl.org/dc/elements/1.1/"
   xmlns:cc="http://creativecommons.org/ns#"
   xmlns:rdf="http://www.w3.org/1999/02/22-rdf-syntax-ns#"
   xmlns:svg="http://www.w3.org/2000/svg"
   xmlns="http://www.w3.org/2000/svg"
   xmlns:xlink="http://www.w3.org/1999/xlink"
   xmlns:sodipodi="http://sodipodi.sourceforge.net/DTD/sodipodi-0.dtd"
   xmlns:inkscape="http://www.inkscape.org/namespaces/inkscape"
   width="600"
   height="480"
   viewBox="0 0 600 480"
   id="svg3336"
   version="1.1"
   inkscape:version="0.91 r13725"
   sodipodi:docname="Black_body_fr.svg">
  <metadata
     id="metadata4061">
    <rdf:RDF>
      <cc:Work
         rdf:about="">
        <dc:format>image/svg+xml</dc:format>
        <dc:type
           rdf:resource="http://purl.org/dc/dcmitype/StillImage" />
      </cc:Work>
    </rdf:RDF>
  </metadata>
  <sodipodi:namedview
     pagecolor="#ffffff"
     bordercolor="#666666"
     borderopacity="1"
     objecttolerance="10"
     gridtolerance="10"
     guidetolerance="10"
     inkscape:pageopacity="0"
     inkscape:pageshadow="2"
     inkscape:window-width="1366"
     inkscape:window-height="705"
     id="namedview4059"
     showgrid="false"
     inkscape:zoom="1.1166667"
     inkscape:cx="300"
     inkscape:cy="240"
     inkscape:window-x="-8"
     inkscape:window-y="-8"
     inkscape:window-maximized="1"
     inkscape:current-layer="svg3336" />
  <desc
     id="desc3338">Produced by GNUPLOT 4.4 patchlevel 0, background spectrum based on http://commons.wikimedia.org/wiki/File:Linear_visible_spectrum.svg</desc>
  <defs
     id="defs3340">
    <circle
       id="gpDot"
       r="0.5"
       stroke-width="0.5" />
    <path
       id="gpPt0"
       stroke-width="0.222"
       stroke="currentColor"
       d="M-1,0 h2 M0,-1 v2" />
    <path
       id="gpPt1"
       stroke-width="0.222"
       stroke="currentColor"
       d="M-1,-1 L1,1 M1,-1 L-1,1" />
    <path
       id="gpPt2"
       stroke-width="0.222"
       stroke="currentColor"
       d="M-1,0 L1,0 M0,-1 L0,1 M-1,-1 L1,1 M-1,1 L1,-1" />
    <rect
       id="gpPt3"
       stroke-width="0.222"
       stroke="currentColor"
       x="-1"
       y="-1"
       width="2"
       height="2" />
    <rect
       id="gpPt4"
       stroke-width="0.222"
       stroke="currentColor"
       fill="currentColor"
       x="-1"
       y="-1"
       width="2"
       height="2" />
    <circle
       id="gpPt5"
       stroke-width="0.222"
       stroke="currentColor"
       cx="0"
       cy="0"
       r="1" />
    <use
       xlink:href="#gpPt5"
       id="gpPt6"
       fill="currentColor"
       stroke="none" />
    <path
       id="gpPt7"
       stroke-width="0.222"
       stroke="currentColor"
       d="M0,-1.33 L-1.33,0.67 L1.33,0.67 z" />
    <use
       xlink:href="#gpPt7"
       id="gpPt8"
       fill="currentColor"
       stroke="none" />
    <use
       xlink:href="#gpPt7"
       id="gpPt9"
       stroke="currentColor"
       transform="rotate(180)" />
    <use
       xlink:href="#gpPt9"
       id="gpPt10"
       fill="currentColor"
       stroke="none" />
    <use
       xlink:href="#gpPt3"
       id="gpPt11"
       stroke="currentColor"
       transform="rotate(45)" />
    <use
       xlink:href="#gpPt11"
       id="gpPt12"
       fill="currentColor"
       stroke="none" />
    <linearGradient
       id="grad_spectrum"
       x1="0%"
       y1="0%"
       x2="100%"
       y2="0%">
      <stop
         offset="0.000000"
         stop-color="#020005"
         id="stop3357" />
      <stop
         offset="0.013514"
         stop-color="#020006"
         id="stop3359" />
      <stop
         offset="0.027027"
         stop-color="#030008"
         id="stop3361" />
      <stop
         offset="0.040541"
         stop-color="#04000a"
         id="stop3363" />
      <stop
         offset="0.054054"
         stop-color="#06000d"
         id="stop3365" />
      <stop
         offset="0.067568"
         stop-color="#080110"
         id="stop3367" />
      <stop
         offset="0.081081"
         stop-color="#0c0117"
         id="stop3369" />
      <stop
         offset="0.094595"
         stop-color="#11021f"
         id="stop3371" />
      <stop
         offset="0.108108"
         stop-color="#17032a"
         id="stop3373" />
      <stop
         offset="0.121622"
         stop-color="#1f053a"
         id="stop3375" />
      <stop
         offset="0.135135"
         stop-color="#25084b"
         id="stop3377" />
      <stop
         offset="0.148649"
         stop-color="#290a5c"
         id="stop3379" />
      <stop
         offset="0.162162"
         stop-color="#2b0e6f"
         id="stop3381" />
      <stop
         offset="0.175676"
         stop-color="#291380"
         id="stop3383" />
      <stop
         offset="0.189189"
         stop-color="#1f237b"
         id="stop3385" />
      <stop
         offset="0.202703"
         stop-color="#132e74"
         id="stop3387" />
      <stop
         offset="0.216216"
         stop-color="#09376c"
         id="stop3389" />
      <stop
         offset="0.229730"
         stop-color="#0a3e66"
         id="stop3391" />
      <stop
         offset="0.243243"
         stop-color="#0c4667"
         id="stop3393" />
      <stop
         offset="0.256757"
         stop-color="#0e4f6a"
         id="stop3395" />
      <stop
         offset="0.270270"
         stop-color="#10596c"
         id="stop3397" />
      <stop
         offset="0.283784"
         stop-color="#11636d"
         id="stop3399" />
      <stop
         offset="0.297297"
         stop-color="#146e6f"
         id="stop3401" />
      <stop
         offset="0.310811"
         stop-color="#177970"
         id="stop3403" />
      <stop
         offset="0.324324"
         stop-color="#178672"
         id="stop3405" />
      <stop
         offset="0.337838"
         stop-color="#1a9574"
         id="stop3407" />
      <stop
         offset="0.351351"
         stop-color="#1da375"
         id="stop3409" />
      <stop
         offset="0.364865"
         stop-color="#1db273"
         id="stop3411" />
      <stop
         offset="0.378378"
         stop-color="#20c070"
         id="stop3413" />
      <stop
         offset="0.391892"
         stop-color="#22cb6b"
         id="stop3415" />
      <stop
         offset="0.405405"
         stop-color="#21d662"
         id="stop3417" />
      <stop
         offset="0.418919"
         stop-color="#23e054"
         id="stop3419" />
      <stop
         offset="0.432432"
         stop-color="#36e842"
         id="stop3421" />
      <stop
         offset="0.445946"
         stop-color="#50ed28"
         id="stop3423" />
      <stop
         offset="0.459459"
         stop-color="#73eb22"
         id="stop3425" />
      <stop
         offset="0.472973"
         stop-color="#8fe722"
         id="stop3427" />
      <stop
         offset="0.486486"
         stop-color="#a5e221"
         id="stop3429" />
      <stop
         offset="0.500000"
         stop-color="#b9dc22"
         id="stop3431" />
      <stop
         offset="0.513514"
         stop-color="#cbd621"
         id="stop3433" />
      <stop
         offset="0.527027"
         stop-color="#dcce20"
         id="stop3435" />
      <stop
         offset="0.540541"
         stop-color="#ecc420"
         id="stop3437" />
      <stop
         offset="0.554054"
         stop-color="#f2b735"
         id="stop3439" />
      <stop
         offset="0.567568"
         stop-color="#f5ab42"
         id="stop3441" />
      <stop
         offset="0.581081"
         stop-color="#f69f49"
         id="stop3443" />
      <stop
         offset="0.594595"
         stop-color="#f7944b"
         id="stop3445" />
      <stop
         offset="0.608108"
         stop-color="#f98848"
         id="stop3447" />
      <stop
         offset="0.621622"
         stop-color="#fa7b42"
         id="stop3449" />
      <stop
         offset="0.635135"
         stop-color="#fb6c39"
         id="stop3451" />
      <stop
         offset="0.648649"
         stop-color="#fd5b2e"
         id="stop3453" />
      <stop
         offset="0.662162"
         stop-color="#fc471f"
         id="stop3455" />
      <stop
         offset="0.675676"
         stop-color="#f7300f"
         id="stop3457" />
      <stop
         offset="0.689189"
         stop-color="#ea220d"
         id="stop3459" />
      <stop
         offset="0.702703"
         stop-color="#d42215"
         id="stop3461" />
      <stop
         offset="0.716216"
         stop-color="#bf2318"
         id="stop3463" />
      <stop
         offset="0.729730"
         stop-color="#a92309"
         id="stop3465" />
      <stop
         offset="0.743243"
         stop-color="#981f07"
         id="stop3467" />
      <stop
         offset="0.756757"
         stop-color="#871b06"
         id="stop3469" />
      <stop
         offset="0.770270"
         stop-color="#771805"
         id="stop3471" />
      <stop
         offset="0.783784"
         stop-color="#671504"
         id="stop3473" />
      <stop
         offset="0.797297"
         stop-color="#591303"
         id="stop3475" />
      <stop
         offset="0.810811"
         stop-color="#4d1103"
         id="stop3477" />
      <stop
         offset="0.824324"
         stop-color="#420e02"
         id="stop3479" />
      <stop
         offset="0.837838"
         stop-color="#370c01"
         id="stop3481" />
      <stop
         offset="0.851351"
         stop-color="#2e0a01"
         id="stop3483" />
      <stop
         offset="0.864865"
         stop-color="#270801"
         id="stop3485" />
      <stop
         offset="0.878378"
         stop-color="#210600"
         id="stop3487" />
      <stop
         offset="0.891892"
         stop-color="#1e0400"
         id="stop3489" />
      <stop
         offset="0.905405"
         stop-color="#1a0300"
         id="stop3491" />
      <stop
         offset="0.918919"
         stop-color="#170200"
         id="stop3493" />
      <stop
         offset="0.932432"
         stop-color="#130100"
         id="stop3495" />
      <stop
         offset="0.945946"
         stop-color="#100100"
         id="stop3497" />
      <stop
         offset="0.959459"
         stop-color="#0c0100"
         id="stop3499" />
      <stop
         offset="0.972973"
         stop-color="#080100"
         id="stop3501" />
      <stop
         offset="0.986486"
         stop-color="#060100"
         id="stop3503" />
      <stop
         offset="1.000000"
         stop-color="#040100"
         id="stop3505" />
    </linearGradient>
  </defs>
  <rect
     x="144"
     y="18"
     width="62"
     height="395"
     fill="url(#grad_spectrum)"
     fill-opacity="0.25"
     id="rect3507" />
  <g
     font-family="Arial"
     font-size="12.00pt"
     font-weight="bold"
     text-anchor="middle"
     stroke="none"
     fill="#999999"
     id="g3509">
    <text
       x="120"
       y="16"
       id="text3511">UV</text>
    <text
       x="175"
       y="16"
       id="text3513">VISIBLE</text>
    <text
       x="372"
       y="16"
       id="text3515">INFRAROUGE</text>
  </g>
  <g
     style="fill:none; color:white; stroke:currentColor; stroke-width:1.00; stroke-linecap:butt; stroke-linejoin:miter"
     id="g3517" />
  <g
     style="fill:none; color:black; stroke:currentColor; stroke-width:1.00; stroke-linecap:butt; stroke-linejoin:miter"
     id="g3519" />
  <g
     style="fill:none; color:gray; stroke:currentColor; stroke-width:1.00; stroke-linecap:butt; stroke-linejoin:miter"
     id="g3521">
    <path
       stroke="rgb(173, 216, 230)"
       d="M80.9,413.4 L579.1,413.4 "
       id="path3523" />
  </g>
  <g
     style="fill:none; color:black; stroke:currentColor; stroke-width:1.00; stroke-linecap:butt; stroke-linejoin:miter"
     id="g3525">
    <path
       d="M80.9,413.4 L71.9,413.4 "
       id="path3527" />
    <g
       transform="translate(63.6,417.9)"
       style="stroke:none; fill:black; font-family:Arial; font-size:12.00pt; text-anchor:end"
       id="g3529">
      <text
         id="text3531">
        <tspan
           id="tspan3533"> 0</tspan>
      </text>
    </g>
  </g>
  <g
     style="fill:none; color:gray; stroke:currentColor; stroke-width:1.00; stroke-linecap:butt; stroke-linejoin:miter"
     id="g3535">
    <path
       stroke="rgb(173, 216, 230)"
       d="M80.9,360.5 L579.1,360.5 "
       id="path3537" />
  </g>
  <g
     style="fill:none; color:black; stroke:currentColor; stroke-width:1.00; stroke-linecap:butt; stroke-linejoin:miter"
     id="g3539">
    <path
       d="M80.9,360.5 L71.9,360.5 "
       id="path3541" />
    <g
       transform="translate(63.6,365.0)"
       style="stroke:none; fill:black; font-family:Arial; font-size:12.00pt; text-anchor:end"
       id="g3543">
      <text
         id="text3545">
        <tspan
           id="tspan3547"> 2</tspan>
      </text>
    </g>
  </g>
  <g
     style="fill:none; color:gray; stroke:currentColor; stroke-width:1.00; stroke-linecap:butt; stroke-linejoin:miter"
     id="g3549">
    <path
       stroke="rgb(173, 216, 230)"
       d="M80.9,307.6 L579.1,307.6 "
       id="path3551" />
  </g>
  <g
     style="fill:none; color:black; stroke:currentColor; stroke-width:1.00; stroke-linecap:butt; stroke-linejoin:miter"
     id="g3553">
    <path
       d="M80.9,307.6 L71.9,307.6 "
       id="path3555" />
    <g
       transform="translate(63.6,312.1)"
       style="stroke:none; fill:black; font-family:Arial; font-size:12.00pt; text-anchor:end"
       id="g3557">
      <text
         id="text3559">
        <tspan
           id="tspan3561"> 4</tspan>
      </text>
    </g>
  </g>
  <g
     style="fill:none; color:gray; stroke:currentColor; stroke-width:1.00; stroke-linecap:butt; stroke-linejoin:miter"
     id="g3563">
    <path
       stroke="rgb(173, 216, 230)"
       d="M80.9,254.7 L579.1,254.7 "
       id="path3565" />
  </g>
  <g
     style="fill:none; color:black; stroke:currentColor; stroke-width:1.00; stroke-linecap:butt; stroke-linejoin:miter"
     id="g3567">
    <path
       d="M80.9,254.7 L71.9,254.7 "
       id="path3569" />
    <g
       transform="translate(63.6,259.2)"
       style="stroke:none; fill:black; font-family:Arial; font-size:12.00pt; text-anchor:end"
       id="g3571">
      <text
         id="text3573">
        <tspan
           id="tspan3575"> 6</tspan>
      </text>
    </g>
  </g>
  <g
     style="fill:none; color:gray; stroke:currentColor; stroke-width:1.00; stroke-linecap:butt; stroke-linejoin:miter"
     id="g3577">
    <path
       stroke="rgb(173, 216, 230)"
       d="M80.9,201.8 L579.1,201.8 "
       id="path3579" />
  </g>
  <g
     style="fill:none; color:black; stroke:currentColor; stroke-width:1.00; stroke-linecap:butt; stroke-linejoin:miter"
     id="g3581">
    <path
       d="M80.9,201.8 L71.9,201.8 "
       id="path3583" />
    <g
       transform="translate(63.6,206.3)"
       style="stroke:none; fill:black; font-family:Arial; font-size:12.00pt; text-anchor:end"
       id="g3585">
      <text
         id="text3587">
        <tspan
           id="tspan3589"> 8</tspan>
      </text>
    </g>
  </g>
  <g
     style="fill:none; color:gray; stroke:currentColor; stroke-width:1.00; stroke-linecap:butt; stroke-linejoin:miter"
     id="g3591">
    <path
       stroke="rgb(173, 216, 230)"
       d="M80.9,148.9 L579.1,148.9 "
       id="path3593" />
  </g>
  <g
     style="fill:none; color:black; stroke:currentColor; stroke-width:1.00; stroke-linecap:butt; stroke-linejoin:miter"
     id="g3595">
    <path
       d="M80.9,148.9 L71.9,148.9 "
       id="path3597" />
    <g
       transform="translate(63.6,153.4)"
       style="stroke:none; fill:black; font-family:Arial; font-size:12.00pt; text-anchor:end"
       id="g3599">
      <text
         id="text3601">
        <tspan
           id="tspan3603"> 10</tspan>
      </text>
    </g>
  </g>
  <g
     style="fill:none; color:gray; stroke:currentColor; stroke-width:1.00; stroke-linecap:butt; stroke-linejoin:miter"
     id="g3605">
    <path
       stroke="rgb(173, 216, 230)"
       d="M80.9,96.0 L579.1,96.0 "
       id="path3607" />
  </g>
  <g
     style="fill:none; color:black; stroke:currentColor; stroke-width:1.00; stroke-linecap:butt; stroke-linejoin:miter"
     id="g3609">
    <path
       d="M80.9,96.0 L71.9,96.0 "
       id="path3611" />
    <g
       transform="translate(63.6,100.5)"
       style="stroke:none; fill:black; font-family:Arial; font-size:12.00pt; text-anchor:end"
       id="g3613">
      <text
         id="text3615">
        <tspan
           id="tspan3617"> 12</tspan>
      </text>
    </g>
  </g>
  <g
     style="fill:none; color:gray; stroke:currentColor; stroke-width:1.00; stroke-linecap:butt; stroke-linejoin:miter"
     id="g3619">
    <path
       stroke="rgb(173, 216, 230)"
       d="M80.9,43.1 L579.1,43.1 "
       id="path3621" />
  </g>
  <g
     style="fill:none; color:black; stroke:currentColor; stroke-width:1.00; stroke-linecap:butt; stroke-linejoin:miter"
     id="g3623">
    <path
       d="M80.9,43.1 L71.9,43.1 "
       id="path3625" />
    <g
       transform="translate(63.6,47.6)"
       style="stroke:none; fill:black; font-family:Arial; font-size:12.00pt; text-anchor:end"
       id="g3627">
      <text
         id="text3629">
        <tspan
           id="tspan3631"> 14</tspan>
      </text>
    </g>
  </g>
  <g
     style="fill:none; color:gray; stroke:currentColor; stroke-width:1.00; stroke-linecap:butt; stroke-linejoin:miter"
     id="g3633">
    <path
       stroke="rgb(173, 216, 230)"
       d="M80.9,413.4 L80.9,16.7 "
       id="path3635" />
  </g>
  <g
     style="fill:none; color:black; stroke:currentColor; stroke-width:1.00; stroke-linecap:butt; stroke-linejoin:miter"
     id="g3637">
    <path
       d="M80.9,413.4 L80.9,422.4 "
       id="path3639" />
    <g
       transform="translate(80.9,444.9)"
       style="stroke:none; fill:black; font-family:Arial; font-size:12.00pt; text-anchor:middle"
       id="g3641">
      <text
         id="text3643">
        <tspan
           id="tspan3645"> 0</tspan>
      </text>
    </g>
  </g>
  <g
     style="fill:none; color:gray; stroke:currentColor; stroke-width:1.00; stroke-linecap:butt; stroke-linejoin:miter"
     id="g3647">
    <path
       stroke="rgb(173, 216, 230)"
       d="M163.9,413.4 L163.9,16.7 "
       id="path3649" />
  </g>
  <g
     style="fill:none; color:black; stroke:currentColor; stroke-width:1.00; stroke-linecap:butt; stroke-linejoin:miter"
     id="g3651">
    <path
       d="M163.9,413.4 L163.9,422.4 "
       id="path3653" />
    <g
       transform="translate(163.9,444.9)"
       style="stroke:none; fill:black; font-family:Arial; font-size:12.00pt; text-anchor:middle"
       id="g3655">
      <text
         id="text3657">
        <tspan
           id="tspan3659" />
      </text>
    </g>
  </g>
  <g
     style="fill:none; color:gray; stroke:currentColor; stroke-width:1.00; stroke-linecap:butt; stroke-linejoin:miter"
     id="g3661">
    <path
       stroke="rgb(173, 216, 230)"
       d="M247.0,413.4 L247.0,16.7 "
       id="path3663" />
  </g>
  <g
     style="fill:none; color:black; stroke:currentColor; stroke-width:1.00; stroke-linecap:butt; stroke-linejoin:miter"
     id="g3665">
    <path
       d="M247.0,413.4 L247.0,422.4 "
       id="path3667" />
    <g
       transform="translate(247.0,444.9)"
       style="stroke:none; fill:black; font-family:Arial; font-size:12.00pt; text-anchor:middle"
       id="g3669">
      <text
         id="text3671">
        <tspan
           id="tspan3673">1000</tspan>
      </text>
    </g>
  </g>
  <g
     style="fill:none; color:gray; stroke:currentColor; stroke-width:1.00; stroke-linecap:butt; stroke-linejoin:miter"
     id="g3675">
    <path
       stroke="rgb(173, 216, 230)"
       d="M330.0,413.4 L330.0,16.7 "
       id="path3677" />
  </g>
  <g
     style="fill:none; color:black; stroke:currentColor; stroke-width:1.00; stroke-linecap:butt; stroke-linejoin:miter"
     id="g3679">
    <path
       d="M330.0,413.4 L330.0,422.4 "
       id="path3681" />
    <g
       transform="translate(330.0,444.9)"
       style="stroke:none; fill:black; font-family:Arial; font-size:12.00pt; text-anchor:middle"
       id="g3683">
      <text
         id="text3685">
        <tspan
           id="tspan3687">1500</tspan>
      </text>
    </g>
  </g>
  <g
     style="fill:none; color:gray; stroke:currentColor; stroke-width:1.00; stroke-linecap:butt; stroke-linejoin:miter"
     id="g3689">
    <path
       stroke="rgb(173, 216, 230)"
       d="M413.0,413.4 L413.0,16.7 "
       id="path3691" />
  </g>
  <g
     style="fill:none; color:black; stroke:currentColor; stroke-width:1.00; stroke-linecap:butt; stroke-linejoin:miter"
     id="g3693">
    <path
       d="M413.0,413.4 L413.0,422.4 "
       id="path3695" />
    <g
       transform="translate(413.0,444.9)"
       style="stroke:none; fill:black; font-family:Arial; font-size:12.00pt; text-anchor:middle"
       id="g3697">
      <text
         id="text3699">
        <tspan
           id="tspan3701">2000</tspan>
      </text>
    </g>
  </g>
  <g
     style="fill:none; color:gray; stroke:currentColor; stroke-width:1.00; stroke-linecap:butt; stroke-linejoin:miter"
     id="g3703">
    <path
       stroke="rgb(173, 216, 230)"
       d="M496.1,413.4 L496.1,16.7 "
       id="path3705" />
  </g>
  <g
     style="fill:none; color:black; stroke:currentColor; stroke-width:1.00; stroke-linecap:butt; stroke-linejoin:miter"
     id="g3707">
    <path
       d="M496.1,413.4 L496.1,422.4 "
       id="path3709" />
    <g
       transform="translate(496.1,444.9)"
       style="stroke:none; fill:black; font-family:Arial; font-size:12.00pt; text-anchor:middle"
       id="g3711">
      <text
         id="text3713">
        <tspan
           id="tspan3715">2500</tspan>
      </text>
    </g>
  </g>
  <g
     style="fill:none; color:gray; stroke:currentColor; stroke-width:1.00; stroke-linecap:butt; stroke-linejoin:miter"
     id="g3717">
    <path
       stroke="rgb(173, 216, 230)"
       d="M579.1,413.4 L579.1,16.7 "
       id="path3719" />
  </g>
  <g
     style="fill:none; color:black; stroke:currentColor; stroke-width:1.00; stroke-linecap:butt; stroke-linejoin:miter"
     id="g3721">
    <path
       d="M579.1,413.4 L579.1,422.4 "
       id="path3723" />
    <g
       transform="translate(579.1,444.9)"
       style="stroke:none; fill:black; font-family:Arial; font-size:12.00pt; text-anchor:middle"
       id="g3725">
      <text
         id="text3727">
        <tspan
           id="tspan3729" />
      </text>
    </g>
    <path
       d="M80.9,16.7 L80.9,413.4 L579.1,413.4 M579.1,16.7 M80.9,16.7 "
       id="path3731" />
    <g
       transform="translate(25.9,215.1) rotate(270)"
       style="stroke:none; fill:black; font-family:Arial; font-size:12.00pt; text-anchor:middle"
       id="g3733">
      <text
         id="text3735">
        <tspan
           id="tspan3737">Luminance spectrale (kW · sr⁻¹ · m⁻² · nm⁻¹)</tspan>
      </text>
    </g>
    <g
       transform="translate(330.0,471.9)"
       style="stroke:none; fill:black; font-family:Arial; font-size:12.00pt; text-anchor:middle"
       id="g3739">
      <text
         id="text3741">
        <tspan
           id="tspan3743" />
      </text>
    </g>
    <g
       transform="translate(155.6,71.4)"
       style="stroke:none; fill:black; font-family:Arial; font-size:12.00pt; text-anchor:start"
       id="g3745">
      <text
         id="text3747">
        <tspan
           id="tspan3749">5000 K</tspan>
      </text>
    </g>
    <g
       transform="translate(180.5,297.6)"
       style="stroke:none; fill:black; font-family:Arial; font-size:12.00pt; text-anchor:start"
       id="g3751">
      <text
         id="text3753">
        <tspan
           id="tspan3755">4000 K</tspan>
      </text>
    </g>
    <g
       transform="translate(213.8,380.9)"
       style="stroke:none; fill:black; font-family:Arial; font-size:12.00pt; text-anchor:start"
       id="g3757">
      <text
         id="text3759">
        <tspan
           id="tspan3761">3000 K</tspan>
      </text>
    </g>
    <g
       transform="translate(338.3,127.0)"
       style="stroke:none; fill:black; font-family:Arial; font-size:12.00pt; text-anchor:start"
       id="g3763">
      <text
         id="text3765">
        <tspan
           id="tspan3767" />
      </text>
    </g>
  </g>
  <a
     xlink:title="Plot #1"
     id="a3769">
    <g
       style="fill:none; color:white; stroke:currentColor; stroke-width:2.00; stroke-linecap:butt; stroke-linejoin:miter"
       id="g3771" />
    <g
       style="fill:none; color:red; stroke:currentColor; stroke-width:2.00; stroke-linecap:butt; stroke-linejoin:miter"
       id="g3773">
      <path
         d="M85.9,413.4 L91.0,413.4 L96.0,413.4 L101.0,413.4 L106.1,413.4 L111.1,413.4 L116.1,413.4 L121.2,413.4    L126.2,413.4 L131.2,413.2 L136.3,413.0 L141.3,412.5 L146.3,411.7 L151.4,410.6 L156.4,409.2 L161.4,407.5    L166.4,405.6 L171.5,403.6 L176.5,401.5 L181.5,399.4 L186.6,397.4 L191.6,395.5 L196.6,393.8 L201.7,392.3    L206.7,391.0 L211.7,389.9 L216.8,389.0 L221.8,388.3 L226.8,387.8 L231.9,387.4 L236.9,387.2 L241.9,387.2    L247.0,387.3 L252.0,387.4 L257.0,387.7 L262.1,388.1 L267.1,388.5 L272.1,388.9 L277.2,389.5 L282.2,390.0    L287.2,390.6 L292.3,391.2 L297.3,391.8 L302.3,392.4 L307.4,393.0 L312.4,393.6 L317.4,394.3 L322.5,394.9    L327.5,395.5 L332.5,396.1 L337.5,396.6 L342.6,397.2 L347.6,397.8 L352.6,398.3 L357.7,398.8 L362.7,399.3    L367.7,399.8 L372.8,400.3 L377.8,400.8 L382.8,401.2 L387.9,401.6 L392.9,402.1 L397.9,402.5 L403.0,402.8    L408.0,403.2 L413.0,403.6 L418.1,403.9 L423.1,404.3 L428.1,404.6 L433.2,404.9 L438.2,405.2 L443.2,405.5    L448.3,405.7 L453.3,406.0 L458.3,406.2 L463.4,406.5 L468.4,406.7 L473.4,406.9 L478.5,407.2 L483.5,407.4    L488.5,407.6 L493.6,407.8 L498.6,407.9 L503.6,408.1 L508.6,408.3 L513.7,408.5 L518.7,408.6 L523.7,408.8    L528.8,408.9 L533.8,409.1 L538.8,409.2 L543.9,409.3 L548.9,409.5 L553.9,409.6 L559.0,409.7 L564.0,409.8    L569.0,409.9 L574.1,410.0 L579.1,410.1 "
         id="path3775" />
    </g>
  </a>
  <a
     xlink:title="Plot #2"
     id="a3777">
    <g
       style="fill:none; color:green; stroke:currentColor; stroke-width:2.00; stroke-linecap:butt; stroke-linejoin:miter"
       id="g3779">
      <path
         d="M85.9,413.4 L91.0,413.4 L96.0,413.4 L101.0,413.4 L106.1,413.4 L111.1,413.4 L116.1,413.1 L121.2,412.1    L126.2,409.5 L131.2,404.9 L136.3,397.8 L141.3,388.6 L146.3,377.8 L151.4,366.1 L156.4,354.4 L161.4,343.3    L166.4,333.3 L171.5,324.6 L176.5,317.4 L181.5,311.8 L186.6,307.7 L191.6,304.9 L196.6,303.4 L201.7,303.0    L206.7,303.5 L211.7,304.7 L216.8,306.6 L221.8,309.0 L226.8,311.8 L231.9,314.8 L236.9,318.0 L241.9,321.4    L247.0,324.9 L252.0,328.4 L257.0,331.9 L262.1,335.3 L267.1,338.7 L272.1,342.0 L277.2,345.2 L282.2,348.3    L287.2,351.3 L292.3,354.1 L297.3,356.9 L302.3,359.5 L307.4,362.0 L312.4,364.4 L317.4,366.7 L322.5,368.9    L327.5,371.0 L332.5,373.0 L337.5,374.8 L342.6,376.6 L347.6,378.3 L352.6,379.9 L357.7,381.4 L362.7,382.9    L367.7,384.3 L372.8,385.6 L377.8,386.8 L382.8,388.0 L387.9,389.1 L392.9,390.2 L397.9,391.2 L403.0,392.1    L408.0,393.0 L413.0,393.9 L418.1,394.7 L423.1,395.5 L428.1,396.2 L433.2,396.9 L438.2,397.6 L443.2,398.2    L448.3,398.9 L453.3,399.4 L458.3,400.0 L463.4,400.5 L468.4,401.0 L473.4,401.5 L478.5,401.9 L483.5,402.4    L488.5,402.8 L493.6,403.2 L498.6,403.6 L503.6,403.9 L508.6,404.3 L513.7,404.6 L518.7,404.9 L523.7,405.2    L528.8,405.5 L533.8,405.8 L538.8,406.0 L543.9,406.3 L548.9,406.5 L553.9,406.8 L559.0,407.0 L564.0,407.2    L569.0,407.4 L574.1,407.6 L579.1,407.8 "
         id="path3781" />
    </g>
  </a>
  <a
     xlink:title="Plot #3"
     id="a3783">
    <g
       style="fill:none; color:blue; stroke:currentColor; stroke-width:2.00; stroke-linecap:butt; stroke-linejoin:miter"
       id="g3785">
      <path
         d="M85.9,413.4 L91.0,413.4 L96.0,413.4 L101.0,413.4 L106.1,413.2 L111.1,411.3 L116.1,404.1 L121.2,387.4    L126.2,359.4 L131.2,321.6 L136.3,278.1 L141.3,233.5 L146.3,191.6 L151.4,155.1 L156.4,125.5 L161.4,103.3    L166.4,88.2 L171.5,79.6 L176.5,76.4 L181.5,77.9 L186.6,83.0 L191.6,91.0 L196.6,101.0 L201.7,112.5    L206.7,125.0 L211.7,138.0 L216.8,151.3 L221.8,164.6 L226.8,177.7 L231.9,190.4 L236.9,202.8 L241.9,214.6    L247.0,226.0 L252.0,236.8 L257.0,247.0 L262.1,256.7 L267.1,265.8 L272.1,274.4 L277.2,282.4 L282.2,290.0    L287.2,297.1 L292.3,303.8 L297.3,310.0 L302.3,315.9 L307.4,321.4 L312.4,326.5 L317.4,331.3 L322.5,335.9    L327.5,340.1 L332.5,344.0 L337.5,347.8 L342.6,351.2 L347.6,354.5 L352.6,357.6 L357.7,360.5 L362.7,363.2    L367.7,365.7 L372.8,368.1 L377.8,370.3 L382.8,372.5 L387.9,374.4 L392.9,376.3 L397.9,378.1 L403.0,379.8    L408.0,381.3 L413.0,382.8 L418.1,384.2 L423.1,385.5 L428.1,386.8 L433.2,388.0 L438.2,389.1 L443.2,390.2    L448.3,391.2 L453.3,392.1 L458.3,393.0 L463.4,393.9 L468.4,394.7 L473.4,395.5 L478.5,396.2 L483.5,396.9    L488.5,397.6 L493.6,398.2 L498.6,398.8 L503.6,399.4 L508.6,399.9 L513.7,400.4 L518.7,400.9 L523.7,401.4    L528.8,401.8 L533.8,402.3 L538.8,402.7 L543.9,403.1 L548.9,403.4 L553.9,403.8 L559.0,404.1 L564.0,404.5    L569.0,404.8 L574.1,405.1 L579.1,405.3 "
         id="path3787" />
    </g>
  </a>
  <g
     style="fill:none; color:white; stroke:currentColor; stroke-width:1.00; stroke-linecap:butt; stroke-linejoin:miter"
     id="g3789" />
  <g
     style="fill:none; color:black; stroke:currentColor; stroke-width:1.00; stroke-linecap:butt; stroke-linejoin:miter"
     id="g3791">
    <path
       d="M80.9,16.7 L80.9,413.4 L579.1,413.4 M579.1,16.7 M80.9,16.7 "
       id="path3793" />
  </g>
  <g
     style="fill:none; color:black; stroke:currentColor; stroke-width:1.00; stroke-linecap:butt; stroke-linejoin:miter"
     id="g3795" />
  <g
     style="fill:none; color:gray; stroke:currentColor; stroke-width:1.00; stroke-linecap:butt; stroke-linejoin:miter"
     id="g3797">
    <path
       stroke="rgb(173, 216, 230)"
       d="M80.9,413.4 L579.1,413.4 "
       id="path3799" />
  </g>
  <g
     style="fill:none; color:black; stroke:currentColor; stroke-width:1.00; stroke-linecap:butt; stroke-linejoin:miter"
     id="g3801">
    <path
       d="M80.9,413.4 L71.9,413.4 "
       id="path3803" />
    <g
       transform="translate(63.6,417.9)"
       style="stroke:none; fill:black; font-family:Arial; font-size:12.00pt; text-anchor:end"
       id="g3805">
      <text
         id="text3807">
        <tspan
           id="tspan3809"> 0</tspan>
      </text>
    </g>
  </g>
  <g
     style="fill:none; color:gray; stroke:currentColor; stroke-width:1.00; stroke-linecap:butt; stroke-linejoin:miter"
     id="g3811">
    <path
       stroke="rgb(173, 216, 230)"
       d="M80.9,360.5 L579.1,360.5 "
       id="path3813" />
  </g>
  <g
     style="fill:none; color:black; stroke:currentColor; stroke-width:1.00; stroke-linecap:butt; stroke-linejoin:miter"
     id="g3815">
    <path
       d="M80.9,360.5 L71.9,360.5 "
       id="path3817" />
    <g
       transform="translate(63.6,365.0)"
       style="stroke:none; fill:black; font-family:Arial; font-size:12.00pt; text-anchor:end"
       id="g3819">
      <text
         id="text3821">
        <tspan
           id="tspan3823"> 2</tspan>
      </text>
    </g>
  </g>
  <g
     style="fill:none; color:gray; stroke:currentColor; stroke-width:1.00; stroke-linecap:butt; stroke-linejoin:miter"
     id="g3825">
    <path
       stroke="rgb(173, 216, 230)"
       d="M80.9,307.6 L579.1,307.6 "
       id="path3827" />
  </g>
  <g
     style="fill:none; color:black; stroke:currentColor; stroke-width:1.00; stroke-linecap:butt; stroke-linejoin:miter"
     id="g3829">
    <path
       d="M80.9,307.6 L71.9,307.6 "
       id="path3831" />
    <g
       transform="translate(63.6,312.1)"
       style="stroke:none; fill:black; font-family:Arial; font-size:12.00pt; text-anchor:end"
       id="g3833">
      <text
         id="text3835">
        <tspan
           id="tspan3837"> 4</tspan>
      </text>
    </g>
  </g>
  <g
     style="fill:none; color:gray; stroke:currentColor; stroke-width:1.00; stroke-linecap:butt; stroke-linejoin:miter"
     id="g3839">
    <path
       stroke="rgb(173, 216, 230)"
       d="M80.9,254.7 L579.1,254.7 "
       id="path3841" />
  </g>
  <g
     style="fill:none; color:black; stroke:currentColor; stroke-width:1.00; stroke-linecap:butt; stroke-linejoin:miter"
     id="g3843">
    <path
       d="M80.9,254.7 L71.9,254.7 "
       id="path3845" />
    <g
       transform="translate(63.6,259.2)"
       style="stroke:none; fill:black; font-family:Arial; font-size:12.00pt; text-anchor:end"
       id="g3847">
      <text
         id="text3849">
        <tspan
           id="tspan3851"> 6</tspan>
      </text>
    </g>
  </g>
  <g
     style="fill:none; color:gray; stroke:currentColor; stroke-width:1.00; stroke-linecap:butt; stroke-linejoin:miter"
     id="g3853">
    <path
       stroke="rgb(173, 216, 230)"
       d="M80.9,201.8 L579.1,201.8 "
       id="path3855" />
  </g>
  <g
     style="fill:none; color:black; stroke:currentColor; stroke-width:1.00; stroke-linecap:butt; stroke-linejoin:miter"
     id="g3857">
    <path
       d="M80.9,201.8 L71.9,201.8 "
       id="path3859" />
    <g
       transform="translate(63.6,206.3)"
       style="stroke:none; fill:black; font-family:Arial; font-size:12.00pt; text-anchor:end"
       id="g3861">
      <text
         id="text3863">
        <tspan
           id="tspan3865"> 8</tspan>
      </text>
    </g>
  </g>
  <g
     style="fill:none; color:gray; stroke:currentColor; stroke-width:1.00; stroke-linecap:butt; stroke-linejoin:miter"
     id="g3867">
    <path
       stroke="rgb(173, 216, 230)"
       d="M80.9,148.9 L579.1,148.9 "
       id="path3869" />
  </g>
  <g
     style="fill:none; color:black; stroke:currentColor; stroke-width:1.00; stroke-linecap:butt; stroke-linejoin:miter"
     id="g3871">
    <path
       d="M80.9,148.9 L71.9,148.9 "
       id="path3873" />
    <g
       transform="translate(63.6,153.4)"
       style="stroke:none; fill:black; font-family:Arial; font-size:12.00pt; text-anchor:end"
       id="g3875">
      <text
         id="text3877">
        <tspan
           id="tspan3879"> 10</tspan>
      </text>
    </g>
  </g>
  <g
     style="fill:none; color:gray; stroke:currentColor; stroke-width:1.00; stroke-linecap:butt; stroke-linejoin:miter"
     id="g3881">
    <path
       stroke="rgb(173, 216, 230)"
       d="M80.9,96.0 L579.1,96.0 "
       id="path3883" />
  </g>
  <g
     style="fill:none; color:black; stroke:currentColor; stroke-width:1.00; stroke-linecap:butt; stroke-linejoin:miter"
     id="g3885">
    <path
       d="M80.9,96.0 L71.9,96.0 "
       id="path3887" />
    <g
       transform="translate(63.6,100.5)"
       style="stroke:none; fill:black; font-family:Arial; font-size:12.00pt; text-anchor:end"
       id="g3889">
      <text
         id="text3891">
        <tspan
           id="tspan3893"> 12</tspan>
      </text>
    </g>
  </g>
  <g
     style="fill:none; color:gray; stroke:currentColor; stroke-width:1.00; stroke-linecap:butt; stroke-linejoin:miter"
     id="g3895">
    <path
       stroke="rgb(173, 216, 230)"
       d="M80.9,43.1 L579.1,43.1 "
       id="path3897" />
  </g>
  <g
     style="fill:none; color:black; stroke:currentColor; stroke-width:1.00; stroke-linecap:butt; stroke-linejoin:miter"
     id="g3899">
    <path
       d="M80.9,43.1 L71.9,43.1 "
       id="path3901" />
    <g
       transform="translate(63.6,47.6)"
       style="stroke:none; fill:black; font-family:Arial; font-size:12.00pt; text-anchor:end"
       id="g3903">
      <text
         id="text3905">
        <tspan
           id="tspan3907"> 14</tspan>
      </text>
    </g>
  </g>
  <g
     style="fill:none; color:gray; stroke:currentColor; stroke-width:1.00; stroke-linecap:butt; stroke-linejoin:miter"
     id="g3909">
    <path
       stroke="rgb(173, 216, 230)"
       d="M80.9,413.4 L80.9,16.7 "
       id="path3911" />
  </g>
  <g
     style="fill:none; color:black; stroke:currentColor; stroke-width:1.00; stroke-linecap:butt; stroke-linejoin:miter"
     id="g3913">
    <path
       d="M80.9,413.4 L80.9,422.4 "
       id="path3915" />
    <g
       transform="translate(80.9,444.9)"
       style="stroke:none; fill:black; font-family:Arial; font-size:12.00pt; text-anchor:middle"
       id="g3917">
      <text
         id="text3919">
        <tspan
           id="tspan3921"> 0</tspan>
      </text>
    </g>
  </g>
  <g
     style="fill:none; color:gray; stroke:currentColor; stroke-width:1.00; stroke-linecap:butt; stroke-linejoin:miter"
     id="g3923">
    <path
       stroke="rgb(173, 216, 230)"
       d="M163.9,413.4 L163.9,16.7 "
       id="path3925" />
  </g>
  <g
     style="fill:none; color:black; stroke:currentColor; stroke-width:1.00; stroke-linecap:butt; stroke-linejoin:miter"
     id="g3927">
    <path
       d="M163.9,413.4 L163.9,422.4 "
       id="path3929" />
    <g
       transform="translate(163.9,444.9)"
       style="stroke:none; fill:black; font-family:Arial; font-size:12.00pt; text-anchor:middle"
       id="g3931">
      <text
         id="text3933">
        <tspan
           id="tspan3935">500</tspan>
      </text>
    </g>
  </g>
  <g
     style="fill:none; color:gray; stroke:currentColor; stroke-width:1.00; stroke-linecap:butt; stroke-linejoin:miter"
     id="g3937">
    <path
       stroke="rgb(173, 216, 230)"
       d="M247.0,413.4 L247.0,16.7 "
       id="path3939" />
  </g>
  <g
     style="fill:none; color:black; stroke:currentColor; stroke-width:1.00; stroke-linecap:butt; stroke-linejoin:miter"
     id="g3941">
    <path
       d="M247.0,413.4 L247.0,422.4 "
       id="path3943" />
    <g
       transform="translate(247.0,444.9)"
       style="stroke:none; fill:black; font-family:Arial; font-size:12.00pt; text-anchor:middle"
       id="g3945">
      <text
         id="text3947">
        <tspan
           id="tspan3949" />
      </text>
    </g>
  </g>
  <g
     style="fill:none; color:gray; stroke:currentColor; stroke-width:1.00; stroke-linecap:butt; stroke-linejoin:miter"
     id="g3951">
    <path
       stroke="rgb(173, 216, 230)"
       d="M330.0,413.4 L330.0,16.7 "
       id="path3953" />
  </g>
  <g
     style="fill:none; color:black; stroke:currentColor; stroke-width:1.00; stroke-linecap:butt; stroke-linejoin:miter"
     id="g3955">
    <path
       d="M330.0,413.4 L330.0,422.4 "
       id="path3957" />
    <g
       transform="translate(330.0,444.9)"
       style="stroke:none; fill:black; font-family:Arial; font-size:12.00pt; text-anchor:middle"
       id="g3959">
      <text
         id="text3961">
        <tspan
           id="tspan3963" />
      </text>
    </g>
  </g>
  <g
     style="fill:none; color:gray; stroke:currentColor; stroke-width:1.00; stroke-linecap:butt; stroke-linejoin:miter"
     id="g3965">
    <path
       stroke="rgb(173, 216, 230)"
       d="M413.0,413.4 L413.0,16.7 "
       id="path3967" />
  </g>
  <g
     style="fill:none; color:black; stroke:currentColor; stroke-width:1.00; stroke-linecap:butt; stroke-linejoin:miter"
     id="g3969">
    <path
       d="M413.0,413.4 L413.0,422.4 "
       id="path3971" />
    <g
       transform="translate(413.0,444.9)"
       style="stroke:none; fill:black; font-family:Arial; font-size:12.00pt; text-anchor:middle"
       id="g3973">
      <text
         id="text3975">
        <tspan
           id="tspan3977" />
      </text>
    </g>
  </g>
  <g
     style="fill:none; color:gray; stroke:currentColor; stroke-width:1.00; stroke-linecap:butt; stroke-linejoin:miter"
     id="g3979">
    <path
       stroke="rgb(173, 216, 230)"
       d="M496.1,413.4 L496.1,16.7 "
       id="path3981" />
  </g>
  <g
     style="fill:none; color:black; stroke:currentColor; stroke-width:1.00; stroke-linecap:butt; stroke-linejoin:miter"
     id="g3983">
    <path
       d="M496.1,413.4 L496.1,422.4 "
       id="path3985" />
    <g
       transform="translate(496.1,444.9)"
       style="stroke:none; fill:black; font-family:Arial; font-size:12.00pt; text-anchor:middle"
       id="g3987">
      <text
         id="text3989">
        <tspan
           id="tspan3991" />
      </text>
    </g>
  </g>
  <g
     style="fill:none; color:gray; stroke:currentColor; stroke-width:1.00; stroke-linecap:butt; stroke-linejoin:miter"
     id="g3993">
    <path
       stroke="rgb(173, 216, 230)"
       d="M579.1,413.4 L579.1,16.7 "
       id="path3995" />
  </g>
  <g
     style="color:#000000;fill:none;stroke:currentColor;stroke-width:1;stroke-linecap:butt;stroke-linejoin:miter"
     id="g3997"
     transform="translate(-4.0625001e-6,-2.1875002e-7)">
    <path
       d="m 579.1,413.4 0,9"
       id="path3999"
       inkscape:connector-curvature="0" />
    <g
       transform="translate(579.1,444.9)"
       style="font-size:15px;font-family:Arial;text-anchor:middle;fill:#000000;stroke:none"
       id="g4001">
      <text
         id="text4003">
        <tspan
           id="tspan4005" />
      </text>
    </g>
    <path
       d="m 80.9,16.7 0,396.7 498.2,0 m 0,-396.7 m -498.2,0"
       id="path4007"
       inkscape:connector-curvature="0" />
    <g
       transform="matrix(0,-1,1,0,25.9,215.1)"
       style="font-size:15px;font-family:Arial;text-anchor:middle;fill:#000000;stroke:none"
       id="g4009">
      <text
         id="text4011">
        <tspan
           id="tspan4013" />
      </text>
    </g>
    <g
       transform="translate(330,471.9)"
       style="font-size:15px;font-family:Arial;text-anchor:middle;fill:#000000;stroke:none"
       id="g4015">
      <text
         id="text4017">
        <tspan
           id="tspan4019">Longueur d'onde (nm)</tspan>
      </text>
    </g>
    <g
       transform="translate(155.6,71.4)"
       style="font-size:15px;font-family:Arial;text-anchor:start;fill:#000000;stroke:none"
       id="g4021">
      <text
         id="text4023">
        <tspan
           id="tspan4025">5000 K</tspan>
      </text>
    </g>
    <g
       transform="translate(180.5,297.6)"
       style="font-size:15px;font-family:Arial;text-anchor:start;fill:#000000;stroke:none"
       id="g4027">
      <text
         id="text4029">
        <tspan
           id="tspan4031">4000 K</tspan>
      </text>
    </g>
    <g
       transform="translate(213.8,380.9)"
       style="font-size:15px;font-family:Arial;text-anchor:start;fill:#000000;stroke:none"
       id="g4033">
      <text
         id="text4035">
        <tspan
           id="tspan4037">3000 K</tspan>
      </text>
    </g>
    <g
       transform="translate(338.3,127)"
       style="font-size:15px;font-family:Arial;text-anchor:start;fill:#000000;stroke:none"
       id="g4039">
      <text
         id="text4041">
        <tspan
           id="tspan4043">Théorie de Rayleigh-Jeans (5000 K)</tspan>
      </text>
    </g>
  </g>
  <a
     xlink:title="Plot #1"
     id="a4045">
    <g
       style="fill:none; color:white; stroke:currentColor; stroke-width:2.00; stroke-linecap:butt; stroke-linejoin:miter"
       id="g4047" />
    <g
       style="fill:none; color:red; stroke:currentColor; stroke-width:2.00; stroke-linecap:butt; stroke-linejoin:miter"
       id="g4049">
      <path
         stroke="rgb(  0,   0,   0)"
         d="M295.0,16.7 L297.3,33.6 L302.3,67.0 L307.4,96.8 L312.4,123.4 L317.4,147.3 L322.5,168.8 L327.5,188.2    L332.5,205.6 L337.5,221.5 L342.6,235.8 L347.6,248.8 L352.6,260.7 L357.7,271.5 L362.7,281.4 L367.7,290.4    L372.8,298.7 L377.8,306.2 L382.8,313.2 L387.9,319.6 L392.9,325.5 L397.9,331.0 L403.0,336.0 L408.0,340.7    L413.0,345.0 L418.1,349.0 L423.1,352.7 L428.1,356.1 L433.2,359.3 L438.2,362.3 L443.2,365.1 L448.3,367.7    L453.3,370.1 L458.3,372.4 L463.4,374.5 L468.4,376.5 L473.4,378.3 L478.5,380.1 L483.5,381.7 L488.5,383.2    L493.6,384.7 L498.6,386.0 L503.6,387.3 L508.6,388.5 L513.7,389.7 L518.7,390.7 L523.7,391.7 L528.8,392.7    L533.8,393.6 L538.8,394.5 L543.9,395.3 L548.9,396.0 L553.9,396.8 L559.0,397.5 L564.0,398.1 L569.0,398.7    L574.1,399.3 L579.1,399.9 "
         id="path4051" />
    </g>
  </a>
  <g
     style="fill:none; color:white; stroke:rgb(  0,   0,   0); stroke-width:1.00; stroke-linecap:butt; stroke-linejoin:miter"
     id="g4053" />
  <g
     style="fill:none; color:black; stroke:currentColor; stroke-width:1.00; stroke-linecap:butt; stroke-linejoin:miter"
     id="g4055">
    <path
       d="M80.9,16.7 L80.9,413.4 L579.1,413.4 M579.1,16.7 M80.9,16.7 "
       id="path4057" />
  </g>
  <flowRoot
     xml:space="preserve"
     id="flowRoot4071"
     style="fill:black;stroke:none;stroke-opacity:1;stroke-width:1px;stroke-linejoin:miter;stroke-linecap:butt;fill-opacity:1;font-family:sans-serif;font-style:normal;font-weight:normal;font-size:15px;line-height:125%;letter-spacing:0px;word-spacing:0px"><flowRegion
       id="flowRegion4073"><rect
         id="rect4075"
         width="0"
         height="26.865671"
         x="24.179104"
         y="85.970146" /></flowRegion><flowPara
       id="flowPara4077"></flowPara></flowRoot></svg>
